<?xml version="1.0" encoding="UTF-8" standalone="no"?>
<svg xmlns="http://www.w3.org/2000/svg" width="200" height="200" viewBox="0 0 200 200">
  <g fill="none" stroke="#000" stroke-width="3">
    <!-- Top book -->
    <path d="M120,80 C120,65 100,65 100,80 L100,120 C100,135 120,135 120,120 L120,80 Z" />
    <path d="M120,80 L170,80" />
    <path d="M120,120 L170,120" />
    <path d="M130,100 L150,100" />
    
    <!-- Bottom book -->
    <path d="M120,120 C120,135 140,135 140,120 L140,160 C140,175 120,175 120,160 L120,120 Z" />
    <path d="M120,160 L70,160" />
    <path d="M120,120 L70,120" />
    <path d="M90,140 L110,140" />
    
    <!-- Bookmark -->
    <path d="M140,140 L140,170 L150,160 L160,170 L160,140 Z" />
  </g>
  
  <!-- Text -->
  <text x="100" y="195" font-family="Arial, sans-serif" font-size="24" font-weight="bold" text-anchor="middle">BOOKS</text>
</svg>
